# xmcd
#
# Track frame offsets:
#	150
#	17686
#	29260
#	44633
#	55956
#	66375
#	80967
#	93517
#	102367
#	117123
#	133815
#	146549
#	157712
#	169977
#	181441
#	190969
#	204175
#	213597
#	224967
#	237535
#
# Disc length: 3339 seconds
#
# Revision: 0
# Processed by: cddbd v1.5.1PL2 Copyright (c) Steve Scherf et al.
# Submitted via: dBpowerAMP V4.0
#
DISCID=370d0914
DTITLE=Various Artist - Great Country Hits CD4
DYEAR=2002
DGENRE=Country
TTITLE0=Nitty Gritty Dirt Band - Partners, Brothers, Friends
TTITLE1=Eddie Raven - Dealin' With The Devil
TTITLE2=Don Williams - Till The Rivers All Run Dry
TTITLE3=Barbara Mandrell - We've got everything but Love
TTITLE4=Tammy Wynette - Another Chance
TTITLE5=The Osmond Brothers - Yes Ma'am
TTITLE6=Willie Nelson - Any old Arms wan't you
TTITLE7=Johnny Paycheck - The Johnson's of Turkey Ridge
TTITLE8=Willie Nelson - And, so will you love me
TTITLE9=Terri Gibbs - She don't know
TTITLE10=Faron Young - Swinging Doors
TTITLE11=Conway Twitty - Broken Heart
TTITLE12=Willie Nelson - I can't find the Time
TTITLE13=Terri Gibbs - I just stopped to tell you hello
TTITLE14=Porter Wagoner - Louisiana Saturday Night
TTITLE15=Faron Young - Chapel in the Moonlight
TTITLE16=Johnny Paycheck - The Race is on
TTITLE17=Mickey Gilley - Blaze of Glory
TTITLE18=Carl Perkins - Take me back
TTITLE19=Don Williams - Goodbye isn't really good at all
EXTD=
EXTT0=
EXTT1=
EXTT2=
EXTT3=
EXTT4=
EXTT5=
EXTT6=
EXTT7=
EXTT8=
EXTT9=
EXTT10=
EXTT11=
EXTT12=
EXTT13=
EXTT14=
EXTT15=
EXTT16=
EXTT17=
EXTT18=
EXTT19=
PLAYORDER=
